<mxfile host="app.diagrams.net" modified="2020-09-03T06:18:45.511Z" agent="5.0 (X11; Linux x86_64) AppleWebKit/537.36 (KHTML, like Gecko) Chrome/84.0.4147.135 Safari/537.36" etag="TKAoE7RJbE3ke5gijjvC" version="13.6.5" type="github" pages="2">
  <diagram id="Aom846nJxp8-ckmhE_7P" name="Page-1">
    <mxGraphModel dx="1387" dy="773" grid="1" gridSize="10" guides="1" tooltips="1" connect="1" arrows="1" fold="1" page="1" pageScale="1" pageWidth="827" pageHeight="1169" background="#F1FAEE" math="0" shadow="0">
      <root>
        <mxCell id="0" />
        <mxCell id="1" parent="0" />
        <mxCell id="qtjspHp6lkipxShFISgi-15" style="edgeStyle=orthogonalEdgeStyle;rounded=0;orthogonalLoop=1;jettySize=auto;html=1;exitX=1;exitY=0.5;exitDx=0;exitDy=0;strokeColor=#457B9D;fontColor=#1D3557;labelBackgroundColor=#F1FAEE;" parent="1" source="qtjspHp6lkipxShFISgi-1" target="qtjspHp6lkipxShFISgi-14" edge="1">
          <mxGeometry relative="1" as="geometry" />
        </mxCell>
        <mxCell id="qtjspHp6lkipxShFISgi-1" value="dismips" style="rounded=0;whiteSpace=wrap;html=1;fillColor=#A8DADC;strokeColor=#457B9D;fontColor=#1D3557;" parent="1" vertex="1">
          <mxGeometry x="40" y="80" width="50" height="20" as="geometry" />
        </mxCell>
        <mxCell id="qtjspHp6lkipxShFISgi-17" style="edgeStyle=orthogonalEdgeStyle;rounded=0;orthogonalLoop=1;jettySize=auto;html=1;exitX=1;exitY=0.5;exitDx=0;exitDy=0;strokeColor=#457B9D;fontColor=#1D3557;labelBackgroundColor=#F1FAEE;" parent="1" source="qtjspHp6lkipxShFISgi-2" target="qtjspHp6lkipxShFISgi-16" edge="1">
          <mxGeometry relative="1" as="geometry" />
        </mxCell>
        <mxCell id="qtjspHp6lkipxShFISgi-2" value="disla" style="rounded=0;whiteSpace=wrap;html=1;fillColor=#A8DADC;strokeColor=#457B9D;fontColor=#1D3557;" parent="1" vertex="1">
          <mxGeometry x="40" y="120" width="40" height="20" as="geometry" />
        </mxCell>
        <mxCell id="qtjspHp6lkipxShFISgi-18" style="edgeStyle=orthogonalEdgeStyle;rounded=0;orthogonalLoop=1;jettySize=auto;html=1;exitX=1;exitY=0.5;exitDx=0;exitDy=0;entryX=0;entryY=0.5;entryDx=0;entryDy=0;strokeColor=#457B9D;fontColor=#1D3557;labelBackgroundColor=#F1FAEE;" parent="1" source="qtjspHp6lkipxShFISgi-3" target="qtjspHp6lkipxShFISgi-19" edge="1">
          <mxGeometry relative="1" as="geometry">
            <mxPoint x="140" y="170" as="targetPoint" />
          </mxGeometry>
        </mxCell>
        <mxCell id="qtjspHp6lkipxShFISgi-3" value="include" style="rounded=0;whiteSpace=wrap;html=1;fillColor=#A8DADC;strokeColor=#457B9D;fontColor=#1D3557;" parent="1" vertex="1">
          <mxGeometry x="40" y="160" width="50" height="20" as="geometry" />
        </mxCell>
        <mxCell id="qtjspHp6lkipxShFISgi-21" style="edgeStyle=orthogonalEdgeStyle;rounded=0;orthogonalLoop=1;jettySize=auto;html=1;exitX=1;exitY=0.5;exitDx=0;exitDy=0;strokeColor=#457B9D;fontColor=#1D3557;labelBackgroundColor=#F1FAEE;" parent="1" source="qtjspHp6lkipxShFISgi-4" target="qtjspHp6lkipxShFISgi-20" edge="1">
          <mxGeometry relative="1" as="geometry" />
        </mxCell>
        <mxCell id="qtjspHp6lkipxShFISgi-4" value="ir1" style="rounded=0;whiteSpace=wrap;html=1;fillColor=#A8DADC;strokeColor=#457B9D;fontColor=#1D3557;" parent="1" vertex="1">
          <mxGeometry x="40" y="200" width="40" height="20" as="geometry" />
        </mxCell>
        <mxCell id="qtjspHp6lkipxShFISgi-5" value="ir2" style="rounded=0;whiteSpace=wrap;html=1;fillColor=#A8DADC;strokeColor=#457B9D;fontColor=#1D3557;" parent="1" vertex="1">
          <mxGeometry x="40" y="240" width="40" height="20" as="geometry" />
        </mxCell>
        <mxCell id="qtjspHp6lkipxShFISgi-25" style="edgeStyle=orthogonalEdgeStyle;rounded=0;orthogonalLoop=1;jettySize=auto;html=1;exitX=1;exitY=0.5;exitDx=0;exitDy=0;entryX=0;entryY=0.5;entryDx=0;entryDy=0;strokeColor=#457B9D;fontColor=#1D3557;labelBackgroundColor=#F1FAEE;" parent="1" source="qtjspHp6lkipxShFISgi-6" target="qtjspHp6lkipxShFISgi-24" edge="1">
          <mxGeometry relative="1" as="geometry" />
        </mxCell>
        <mxCell id="qtjspHp6lkipxShFISgi-6" value="translator" style="rounded=0;whiteSpace=wrap;html=1;fillColor=#A8DADC;strokeColor=#457B9D;fontColor=#1D3557;" parent="1" vertex="1">
          <mxGeometry x="40" y="280" width="60" height="20" as="geometry" />
        </mxCell>
        <mxCell id="qtjspHp6lkipxShFISgi-27" style="edgeStyle=orthogonalEdgeStyle;rounded=0;orthogonalLoop=1;jettySize=auto;html=1;exitX=1;exitY=0.5;exitDx=0;exitDy=0;entryX=0;entryY=0.5;entryDx=0;entryDy=0;strokeColor=#457B9D;fontColor=#1D3557;labelBackgroundColor=#F1FAEE;" parent="1" source="qtjspHp6lkipxShFISgi-7" target="qtjspHp6lkipxShFISgi-26" edge="1">
          <mxGeometry relative="1" as="geometry" />
        </mxCell>
        <mxCell id="qtjspHp6lkipxShFISgi-7" value="tu" style="rounded=0;whiteSpace=wrap;html=1;fillColor=#A8DADC;strokeColor=#457B9D;fontColor=#1D3557;" parent="1" vertex="1">
          <mxGeometry x="40" y="320" width="40" height="20" as="geometry" />
        </mxCell>
        <mxCell id="qtjspHp6lkipxShFISgi-28" style="edgeStyle=orthogonalEdgeStyle;rounded=0;orthogonalLoop=1;jettySize=auto;html=1;exitX=1;exitY=0.5;exitDx=0;exitDy=0;entryX=0;entryY=0.5;entryDx=0;entryDy=0;strokeColor=#457B9D;fontColor=#1D3557;labelBackgroundColor=#F1FAEE;" parent="1" source="qtjspHp6lkipxShFISgi-8" target="qtjspHp6lkipxShFISgi-29" edge="1">
          <mxGeometry relative="1" as="geometry">
            <mxPoint x="200" y="370" as="targetPoint" />
          </mxGeometry>
        </mxCell>
        <mxCell id="qtjspHp6lkipxShFISgi-8" value="util" style="rounded=0;whiteSpace=wrap;html=1;fillColor=#A8DADC;strokeColor=#457B9D;fontColor=#1D3557;" parent="1" vertex="1">
          <mxGeometry x="40" y="360" width="40" height="20" as="geometry" />
        </mxCell>
        <mxCell id="qtjspHp6lkipxShFISgi-30" style="edgeStyle=orthogonalEdgeStyle;rounded=0;orthogonalLoop=1;jettySize=auto;html=1;exitX=1;exitY=0.5;exitDx=0;exitDy=0;strokeColor=#457B9D;fontColor=#1D3557;labelBackgroundColor=#F1FAEE;" parent="1" source="qtjspHp6lkipxShFISgi-9" target="qtjspHp6lkipxShFISgi-31" edge="1">
          <mxGeometry relative="1" as="geometry">
            <mxPoint x="190" y="410" as="targetPoint" />
          </mxGeometry>
        </mxCell>
        <mxCell id="qtjspHp6lkipxShFISgi-9" value="main" style="rounded=0;whiteSpace=wrap;html=1;fillColor=#A8DADC;strokeColor=#457B9D;fontColor=#1D3557;" parent="1" vertex="1">
          <mxGeometry x="40" y="400" width="40" height="20" as="geometry" />
        </mxCell>
        <mxCell id="qtjspHp6lkipxShFISgi-14" value="将mips机器码反汇编" style="text;html=1;strokeColor=none;fillColor=none;align=left;verticalAlign=middle;whiteSpace=wrap;rounded=0;fontColor=#1D3557;" parent="1" vertex="1">
          <mxGeometry x="200" y="80" width="160" height="20" as="geometry" />
        </mxCell>
        <mxCell id="qtjspHp6lkipxShFISgi-16" value="将LA机器码反汇编" style="text;html=1;strokeColor=none;fillColor=none;align=left;verticalAlign=middle;whiteSpace=wrap;rounded=0;fontColor=#1D3557;" parent="1" vertex="1">
          <mxGeometry x="200" y="120" width="160" height="20" as="geometry" />
        </mxCell>
        <mxCell id="qtjspHp6lkipxShFISgi-19" value="头文件" style="text;html=1;strokeColor=none;fillColor=none;align=left;verticalAlign=middle;whiteSpace=wrap;rounded=0;labelPosition=center;verticalLabelPosition=middle;fontColor=#1D3557;" parent="1" vertex="1">
          <mxGeometry x="200" y="160" width="160" height="20" as="geometry" />
        </mxCell>
        <mxCell id="qtjspHp6lkipxShFISgi-20" value="翻译为mips机器码" style="text;html=1;strokeColor=none;fillColor=none;align=left;verticalAlign=middle;whiteSpace=wrap;rounded=0;fontColor=#1D3557;" parent="1" vertex="1">
          <mxGeometry x="200" y="200" width="160" height="20" as="geometry" />
        </mxCell>
        <mxCell id="qtjspHp6lkipxShFISgi-22" style="edgeStyle=orthogonalEdgeStyle;rounded=0;orthogonalLoop=1;jettySize=auto;html=1;exitX=1;exitY=0.5;exitDx=0;exitDy=0;strokeColor=#457B9D;fontColor=#1D3557;labelBackgroundColor=#F1FAEE;" parent="1" source="qtjspHp6lkipxShFISgi-5" target="qtjspHp6lkipxShFISgi-23" edge="1">
          <mxGeometry relative="1" as="geometry">
            <mxPoint x="90" y="250" as="sourcePoint" />
          </mxGeometry>
        </mxCell>
        <mxCell id="qtjspHp6lkipxShFISgi-23" value="翻译为la机器码" style="text;html=1;strokeColor=none;fillColor=none;align=left;verticalAlign=middle;whiteSpace=wrap;rounded=0;fontColor=#1D3557;" parent="1" vertex="1">
          <mxGeometry x="200" y="240" width="160" height="20" as="geometry" />
        </mxCell>
        <mxCell id="qtjspHp6lkipxShFISgi-24" value="各类指令翻译的源文件" style="text;html=1;strokeColor=none;fillColor=none;align=left;verticalAlign=middle;whiteSpace=wrap;rounded=0;fontColor=#1D3557;" parent="1" vertex="1">
          <mxGeometry x="200" y="280" width="160" height="20" as="geometry" />
        </mxCell>
        <mxCell id="qtjspHp6lkipxShFISgi-26" value="基本翻译块的实现" style="text;html=1;strokeColor=none;fillColor=none;align=left;verticalAlign=middle;whiteSpace=wrap;rounded=0;fontColor=#1D3557;" parent="1" vertex="1">
          <mxGeometry x="200" y="320" width="160" height="20" as="geometry" />
        </mxCell>
        <mxCell id="qtjspHp6lkipxShFISgi-29" value="实现了一些C没有的数据结构" style="text;html=1;strokeColor=none;fillColor=none;align=left;verticalAlign=middle;whiteSpace=wrap;rounded=0;fontColor=#1D3557;" parent="1" vertex="1">
          <mxGeometry x="200" y="360" width="160" height="20" as="geometry" />
        </mxCell>
        <mxCell id="qtjspHp6lkipxShFISgi-31" value="入口函数" style="text;html=1;strokeColor=none;fillColor=none;align=left;verticalAlign=middle;whiteSpace=wrap;rounded=0;fontColor=#1D3557;" parent="1" vertex="1">
          <mxGeometry x="200" y="400" width="160" height="20" as="geometry" />
        </mxCell>
        <mxCell id="qtjspHp6lkipxShFISgi-33" value="源代码目录下各文件夹内实现的功能" style="rounded=0;whiteSpace=wrap;html=1;align=center;fontSize=12;fillColor=#A8DADC;strokeColor=#457B9D;fontColor=#1D3557;" parent="1" vertex="1">
          <mxGeometry x="40" width="160" height="40" as="geometry" />
        </mxCell>
      </root>
    </mxGraphModel>
  </diagram>
  <diagram id="pZNuYVnxwlgJh_vSdz6V" name="Page-2">
    <mxGraphModel dx="1387" dy="773" grid="1" gridSize="10" guides="1" tooltips="1" connect="1" arrows="1" fold="1" page="1" pageScale="1" pageWidth="827" pageHeight="1169" background="#F1FAEE" math="0" shadow="0">
      <root>
        <mxCell id="Kx-HwaA-jPvCksvryL7s-0" />
        <mxCell id="Kx-HwaA-jPvCksvryL7s-1" parent="Kx-HwaA-jPvCksvryL7s-0" />
        <mxCell id="Yiei9IvfS3q8TYXdiDF7-0" value="main" style="rounded=0;whiteSpace=wrap;html=1;align=center;fillColor=#A8DADC;strokeColor=#457B9D;fontColor=#1D3557;" parent="Kx-HwaA-jPvCksvryL7s-1" vertex="1">
          <mxGeometry x="40" width="160" height="40" as="geometry" />
        </mxCell>
      </root>
    </mxGraphModel>
  </diagram>
</mxfile>
